<?xml version="1.0" encoding="utf-8"?>
<!-- Generator: Adobe Illustrator 16.0.0, SVG Export Plug-In . SVG Version: 6.00 Build 0)  -->
<!DOCTYPE svg PUBLIC "-//W3C//DTD SVG 1.1//EN" "http://www.w3.org/Graphics/SVG/1.1/DTD/svg11.dtd">
<svg version="1.1" xmlns="http://www.w3.org/2000/svg" xmlns:xlink="http://www.w3.org/1999/xlink" x="0px" y="0px"
	 width="557.674px" height="523.212px" viewBox="0 0 557.674 523.212" enable-background="new 0 0 557.674 523.212"
	 xml:space="preserve">
<g id="Background" display="none">
	<rect x="351.417" y="102.51" display="inline" fill="#1D1D1B" width="418.581" height="130.838"/>
</g>
<g id="Logo">
	<g>
		<polygon fill="#715971" points="203.283,262.179 319.984,329.558 319.984,194.801 		"/>
		<polygon fill="#EB1D4D" points="443.864,262.179 327.161,194.801 327.161,329.558 		"/>
		<polygon fill="#00B8A4" points="75.817,188.586 192.518,255.964 192.518,121.208 		"/>
		<polygon fill="#128190" points="316.398,188.586 199.694,121.209 199.694,255.964 		"/>
		<polygon fill="#698358" points="316.398,335.772 199.694,268.395 199.694,403.15 		"/>
		<polygon fill="#42BA85" points="192.518,264.251 72.229,194.801 72.229,333.702 192.518,403.15 		"/>
		<polygon fill="#F59329" points="203.283,409.363 319.984,476.744 319.984,341.987 		"/>
		<polygon fill="#EE5031" points="327.161,337.844 327.161,476.744 447.45,407.293 447.45,268.395 		"/>
		<polygon fill="#821B63" points="330.75,188.586 447.45,255.964 447.45,121.209 		"/>
		<polygon fill="#522E8B" points="323.572,184.443 443.864,114.993 323.572,45.546 203.283,114.993 		"/>
	</g>
</g>
<g id="_xAE_" display="none">
	<g display="inline">
		<path fill="#1D1D1B" d="M-441.955,149.552c0-2.096,0.688-3.862,2.066-5.3c1.377-1.437,3.051-2.156,5.02-2.156
			c1.964,0,3.635,0.719,5.016,2.156c1.381,1.438,2.071,3.204,2.071,5.3c0,2.103-0.692,3.876-2.076,5.32
			c-1.384,1.444-3.054,2.166-5.011,2.166c-1.969,0-3.643-0.722-5.02-2.166C-441.267,153.428-441.955,151.655-441.955,149.552z
			 M-440.737,149.552c0,1.757,0.57,3.236,1.712,4.437c1.141,1.201,2.526,1.801,4.156,1.801c1.624,0,3.006-0.601,4.147-1.801
			c1.142-1.201,1.712-2.68,1.712-4.437c0-1.75-0.57-3.222-1.712-4.417s-2.523-1.792-4.147-1.792c-1.637,0-3.023,0.597-4.162,1.792
			C-440.169,146.33-440.737,147.802-440.737,149.552z M-436.306,150.311v3.364h-1.508v-8.484h2.805c1.005,0,1.797,0.227,2.376,0.679
			c0.579,0.453,0.868,1.098,0.868,1.937c0,0.386-0.097,0.724-0.289,1.013c-0.193,0.29-0.477,0.537-0.849,0.744
			c0.386,0.2,0.667,0.48,0.844,0.843c0.176,0.363,0.264,0.791,0.264,1.283v0.559c0,0.273,0.012,0.518,0.035,0.734
			s0.068,0.394,0.135,0.534v0.16h-1.547c-0.06-0.14-0.097-0.345-0.109-0.614c-0.014-0.269-0.021-0.543-0.021-0.823v-0.539
			c0-0.472-0.111-0.822-0.334-1.048c-0.224-0.227-0.588-0.339-1.093-0.339H-436.306z M-436.306,148.973h1.347
			c0.473,0,0.874-0.1,1.203-0.3c0.329-0.199,0.494-0.485,0.494-0.858c0-0.479-0.13-0.815-0.39-1.008
			c-0.259-0.193-0.712-0.29-1.357-0.29h-1.297V148.973z"/>
	</g>
</g>
</svg>
